Coordinates
nRows=8
nColumns=24

# SIMM Motion File Header:
name Coordinates
datacolumns 24
datarows 8
otherdata 1
range 1.25000000000000000000 1.25700000000000010000

Units are S.I. units (second, meters, Newtons, ...)
Angles are in degrees.

endheader
time	pelvis_tx	pelvis_ty	pelvis_tz	pelvis_tilt	pelvis_list	pelvis_rotation	hip_flexion_r	hip_adduction_r	hip_rotation_r	knee_angle_r	ankle_angle_r	subtalar_angle_r	mtp_angle_r	hip_flexion_l	hip_adduction_l	hip_rotation_l	knee_angle_l	ankle_angle_l	subtalar_angle_l	mtp_angle_l	lumbar_extension	lumbar_bending	lumbar_rotation
      1.25000000000000000000	      0.59255682360766759000	      1.00915850297566840000	      0.05156920043413452900	      4.78216603874630590000	     -4.19909590255359970000	     -4.12791037855512320000	    -21.17918059466986900000	      4.61522708409991100000	      2.88761099001158250000	     -8.22900449720491170000	     13.94842176258386800000	      0.01255611886607866300	     -0.05343767150123932000	     19.16048965007327000000	     -5.42206980300472630000	     -3.90586139760778470000	     -3.15253205272410410000	     -0.93051627775593693000	     -0.00229704844984954900	      0.00311844534761190760	    -16.60299105123667500000	      3.09272521705293050000	      3.86949009456592790000
      1.25100000000000010000	      0.59268073908863728000	      1.00906251261047950000	      0.05152605916376032400	      4.77884321003711680000	     -4.19349152001767680000	     -4.14648062839890750000	    -21.20452564082020800000	      4.59245858384924420000	      2.91748394968963790000	     -8.31825657996917660000	     13.98508504878612300000	      0.01221981167320679600	     -0.05386937393440095100	     19.18476193138110000000	     -5.41092211842619530000	     -3.88692533682440810000	     -3.28062668067285260000	     -0.95978413330257051000	     -0.00224855861475359900	      0.00302866054259007990	    -16.59093574598701800000	      3.06282124154091790000	      3.86734593988798990000
      1.25200000000000000000	      0.59280673648980142000	      1.00896781669305000000	      0.05148265509736885800	      4.77547422496459540000	     -4.18780355809981500000	     -4.16486618893107960000	    -21.22903925149621100000	      4.56978061923426710000	      2.94714198441268320000	     -8.40928319722282500000	     14.02152971044989000000	      0.01187163531275855700	     -0.05430443478910631400	     19.20927288203212800000	     -5.39970743213855720000	     -3.86880002460223430000	     -3.41114495010517120000	     -0.99001419914709521000	     -0.00219741880581681820	      0.00292745487281761410	    -16.57862705776053900000	      3.03273141001272960000	      3.86501781964174910000
      1.25300000000000010000	      0.59293482585641299000	      1.00887445162880710000	      0.05143897597352850600	      4.77206388518866480000	     -4.18203452019566860000	     -4.18306335235952180000	    -21.25271044671253100000	      4.54719839767980450000	      2.97656744002023020000	     -8.50210813923124320000	     14.05771102968767700000	      0.01151155553644543600	     -0.05474150047224858600	     19.23400506240835400000	     -5.38842489578278540000	     -3.85147442294356870000	     -3.54401810524546020000	     -1.02119072897217180000	     -0.00214393547708827520	      0.00281523588254459830	    -16.56606870456179000000	      3.00246022863864280000	      3.86250382670270700000
      1.25400000000000000000	      0.59306501732758798000	      1.00878245719257250000	      0.05139500830534798200	      4.76861721749530790000	     -4.17618648295859440000	     -4.20106836033300810000	    -21.27552799681314600000	      4.52471652319717950000	      3.00574216030854700000	     -8.59675475599751770000	     14.09358121646409500000	      0.01114093417357233000	     -0.05517600220801679300	     19.25894077563690100000	     -5.37707338180874220000	     -3.83493696054905440000	     -3.67917597963710110000	     -1.05330201583125140000	     -0.00209110332345512850	      0.00269958937757822920	    -16.55326456040750200000	      2.97201192316262030000	      3.85980186625608290000
      1.25500000000000010000	      0.59319732047932805000	      1.00869187390599310000	      0.05135073781987875600	      4.76513931891384250000	     -4.17026150769301120000	     -4.21887754323293150000	    -21.29748049379717800000	      4.50233939949886960000	      3.03464769067719820000	     -8.69324686018860500000	     14.12909301257750800000	      0.01076014930339057700	     -0.05560605996121433000	     19.28406210510657100000	     -5.36565195026628230000	     -3.81917567457160350000	     -3.81654891263492100000	     -1.08633099079087090000	     -0.00203934806151412000	      0.00258212011176301920	    -16.54021865754360500000	      2.94139080501097850000	      3.85690994315345440000
      1.25600000000000000000	      0.59333174409768219000	      1.00860274257222550000	      0.05130614949775805200	      4.76163534669643520000	     -4.16426164331143060000	     -4.23648732910630610000	    -21.31855641121352800000	      4.48007120504649500000	      3.06326529775122580000	     -8.79160872368764150000	     14.16419994431475300000	      0.01036859431016990500	     -0.05603287774421328300	     19.30935085887073300000	     -5.35415982754400850000	     -3.80417829336482600000	     -3.95606777535873190000	     -1.12025491726649640000	     -0.00198656060602730180	      0.00245787255658155890	    -16.52693521596753400000	      2.91060125934577480000	      3.85382618480790250000
      1.25700000000000010000	      0.59346829653138233000	      1.00851510574993730000	      0.05126122736730577600	      4.75811057491548530000	     -4.15818876133180200000	     -4.25389420461511230000	    -21.33874403558746700000	      4.45791573703954300000	      3.09157591264027600000	     -8.89186466560001240000	     14.19885523337250700000	      0.00996563982046942170	     -0.05645893245907616200	     19.33478861019505500000	     -5.34259623217510620000	     -3.78993227817423150000	     -4.09766322227377610000	     -1.15504853990871400000	     -0.00193021883608686080	      0.00231948709541160770	    -16.51341860575167100000	      2.87964761224551150000	      3.85054873419164290000
